<?xml version="1.0" encoding="UTF-8"?>
<!DOCTYPE svg PUBLIC "-//W3C//DTD SVG 1.1//EN" "http://www.w3.org/Graphics/SVG/1.1/DTD/svg11.dtd">
<svg xmlns="http://www.w3.org/2000/svg" version="1.1" width="5303px" height="1614px" style="shape-rendering:geometricPrecision; text-rendering:geometricPrecision; image-rendering:optimizeQuality; fill-rule:evenodd; clip-rule:evenodd" xmlns:xlink="http://www.w3.org/1999/xlink">
<g><path style="opacity:0.991" fill="#011d30" d="M 797.5,490.5 C 772.134,566.934 747.134,643.601 722.5,720.5C 772.496,721.5 822.496,721.833 872.5,721.5C 900.573,808.05 928.239,894.717 955.5,981.5C 905.496,981.833 855.496,981.5 805.5,980.5C 778.028,895.418 750.361,810.418 722.5,725.5C 694.639,810.418 666.972,895.418 639.5,980.5C 589.504,981.5 539.504,981.833 489.5,981.5C 541.757,817.729 594.423,654.062 647.5,490.5C 697.665,489.169 747.665,489.169 797.5,490.5 Z"/></g>
<g><path style="opacity:0.991" fill="#011c30" d="M 1438.5,489.5 C 1479.5,489.5 1520.5,489.5 1561.5,489.5C 1561.5,524.5 1561.5,559.5 1561.5,594.5C 1587.5,594.5 1613.5,594.5 1639.5,594.5C 1639.5,630.5 1639.5,666.5 1639.5,702.5C 1613.5,702.5 1587.5,702.5 1561.5,702.5C 1561.33,751.834 1561.5,801.168 1562,850.5C 1567.04,873.283 1581.21,883.116 1604.5,880C 1612.22,878.818 1619.22,875.985 1625.5,871.5C 1626.09,871.709 1626.59,872.043 1627,872.5C 1635,903.173 1642.67,933.839 1650,964.5C 1643.98,970.179 1637.15,974.679 1629.5,978C 1599.71,988.755 1569.04,992.422 1537.5,989C 1477.33,983.359 1444.5,950.526 1439,890.5C 1438.5,756.834 1438.33,623.167 1438.5,489.5 Z"/></g>
<g><path style="opacity:0.987" fill="#011c30" d="M 2123.5,489.5 C 2164.83,489.5 2206.17,489.5 2247.5,489.5C 2247.5,653.167 2247.5,816.833 2247.5,980.5C 2206.17,980.5 2164.83,980.5 2123.5,980.5C 2123.5,816.833 2123.5,653.167 2123.5,489.5 Z"/></g>
<g><path style="opacity:0.99" fill="#011c30" d="M 2314.5,489.5 C 2355.83,489.5 2397.17,489.5 2438.5,489.5C 2438.5,653.167 2438.5,816.833 2438.5,980.5C 2397.17,980.5 2355.83,980.5 2314.5,980.5C 2314.5,816.833 2314.5,653.167 2314.5,489.5 Z"/></g>
<g><path style="opacity:0.993" fill="#f8a039" d="M 797.5,490.5 C 822.674,567.358 847.674,644.358 872.5,721.5C 822.496,721.833 772.496,721.5 722.5,720.5C 747.134,643.601 772.134,566.934 797.5,490.5 Z"/></g>
<g><path style="opacity:0.994" fill="#011c30" d="M 1213.5,585.5 C 1302.23,583.101 1360.06,624.101 1387,708.5C 1403.09,769.701 1400.42,830.034 1379,889.5C 1350.21,954.901 1299.87,988.568 1228,990.5C 1181.95,989.641 1144.29,971.641 1115,936.5C 1114.5,999.832 1114.33,1063.17 1114.5,1126.5C 1073.5,1126.5 1032.5,1126.5 991.5,1126.5C 991.5,949.167 991.5,771.833 991.5,594.5C 1032.5,594.5 1073.5,594.5 1114.5,594.5C 1114.33,608.837 1114.5,623.171 1115,637.5C 1140.97,607.098 1173.81,589.764 1213.5,585.5 Z M 1180.5,694.5 C 1235.59,696.081 1265.75,724.415 1271,779.5C 1273.68,812.484 1263.18,840.317 1239.5,863C 1211.32,882.84 1181.32,885.84 1149.5,872C 1136.13,866.062 1124.63,857.562 1115,846.5C 1114.33,807.5 1114.33,768.5 1115,729.5C 1127.95,713.597 1144.45,703.097 1164.5,698C 1169.95,696.745 1175.29,695.578 1180.5,694.5 Z"/></g>
<g><path style="opacity:0.992" fill="#011c30" d="M 1855.5,585.5 C 1910.93,581.481 1959.93,596.981 2002.5,632C 2041.33,669.503 2063.16,715.337 2068,769.5C 2069.3,788.476 2069.8,807.476 2069.5,826.5C 1978.17,826.333 1886.83,826.5 1795.5,827C 1806.57,863.397 1830.9,885.064 1868.5,892C 1912.35,898.329 1951.85,888.162 1987,861.5C 2004.7,887.03 2022.2,912.696 2039.5,938.5C 2016.83,958.006 1990.83,971.506 1961.5,979C 1915.19,991.476 1868.52,993.142 1821.5,984C 1739.3,964.132 1689.13,912.965 1671,830.5C 1659.59,768.542 1672.25,712.209 1709,661.5C 1747.06,615.716 1795.9,590.383 1855.5,585.5 Z M 1859.5,681.5 C 1889.2,677.565 1914.37,686.232 1935,707.5C 1943.78,719.06 1949.28,732.06 1951.5,746.5C 1899.17,746.5 1846.83,746.5 1794.5,746.5C 1801.25,709.75 1822.92,688.083 1859.5,681.5 Z"/></g>
<g><path style="opacity:0.992" fill="#011c30" d="M 2665.5,585.5 C 2704.59,583.046 2742.59,588.213 2779.5,601C 2832.09,623.303 2860.26,663.137 2864,720.5C 2864.5,807.166 2864.67,893.833 2864.5,980.5C 2823.5,980.5 2782.5,980.5 2741.5,980.5C 2741.67,968.162 2741.5,955.829 2741,943.5C 2720.43,964.71 2695.59,978.543 2666.5,985C 2620.99,996.471 2578.66,989.471 2539.5,964C 2502.44,935.362 2485.94,897.528 2490,850.5C 2495.86,791.967 2527.69,756.8 2585.5,745C 2624.08,738.174 2661.75,741.508 2698.5,755C 2714.85,761.752 2729.01,771.585 2741,784.5C 2741.67,767.833 2741.67,751.167 2741,734.5C 2739.31,717.281 2731.14,704.114 2716.5,695C 2700.06,686.511 2682.56,682.345 2664,682.5C 2622.65,683.668 2586.15,697.334 2554.5,723.5C 2539.75,698.33 2525.25,672.996 2511,647.5C 2510.29,645.633 2510.79,644.133 2512.5,643C 2544.69,617.581 2581.02,600.581 2621.5,592C 2636.22,589.207 2650.89,587.04 2665.5,585.5 Z M 2663.5,820.5 C 2689.65,818.487 2713.31,824.987 2734.5,840C 2737.04,842.205 2739.21,844.705 2741,847.5C 2741.96,859.264 2741.62,870.93 2740,882.5C 2724.89,898.105 2706.39,906.605 2684.5,908C 2668.63,909.91 2653.3,907.91 2638.5,902C 2614.41,889.729 2607.24,870.896 2617,845.5C 2624.22,834.293 2634.39,827.126 2647.5,824C 2652.91,822.504 2658.24,821.337 2663.5,820.5 Z"/></g>
<g><path style="opacity:0.967" fill="#011c30" d="M 3452.5,652.5 C 3480.27,648.476 3503.44,656.809 3522,677.5C 3536.48,699.612 3539.48,723.279 3531,748.5C 3518.28,776.046 3496.61,790.046 3466,790.5C 3430.51,789.656 3407.85,772.323 3398,738.5C 3390.96,693.453 3409.12,664.786 3452.5,652.5 Z M 3457.5,678.5 C 3492.03,677.865 3507.86,694.865 3505,729.5C 3498.73,755.772 3482.23,766.939 3455.5,763C 3439.64,757.805 3430.14,746.972 3427,730.5C 3423.8,711.428 3429.63,695.928 3444.5,684C 3448.74,681.651 3453.07,679.818 3457.5,678.5 Z"/></g>
<g><path style="opacity:0.967" fill="#011c30" d="M 4078.5,652.5 C 4107.8,648.419 4131.64,657.753 4150,680.5C 4162.53,702.051 4164.86,724.717 4157,748.5C 4144.28,776.046 4122.61,790.046 4092,790.5C 4056.99,789.689 4034.33,772.689 4024,739.5C 4016.43,693.92 4034.59,664.92 4078.5,652.5 Z M 4083.5,678.5 C 4109.72,676.234 4125.55,687.901 4131,713.5C 4134.17,736.01 4125.67,752.176 4105.5,762C 4077.72,768.531 4060.22,758.031 4053,730.5C 4050.05,713.025 4054.88,698.192 4067.5,686C 4072.54,682.643 4077.88,680.143 4083.5,678.5 Z"/></g>
<g><path style="opacity:0.971" fill="#011c30" d="M 3046.5,654.5 C 3059.08,654.178 3071.58,654.511 3084,655.5C 3100.83,699.167 3117.67,742.833 3134.5,786.5C 3123.52,787.666 3112.52,787.832 3101.5,787C 3098.74,780.223 3096.07,773.39 3093.5,766.5C 3074.84,765.334 3056.18,765.167 3037.5,766C 3034.74,772.777 3032.07,779.61 3029.5,786.5C 3018.52,787.499 3007.52,787.832 2996.5,787.5C 3013.17,743.167 3029.83,698.833 3046.5,654.5 Z M 3064.5,685.5 C 3066.45,688.141 3067.95,691.141 3069,694.5C 3074.67,709.348 3079.84,724.348 3084.5,739.5C 3071.5,739.667 3058.5,739.5 3045.5,739C 3052.33,721.337 3058.67,703.504 3064.5,685.5 Z"/></g>
<g><path style="opacity:0.967" fill="#011c30" d="M 3141.5,654.5 C 3151.5,654.5 3161.5,654.5 3171.5,654.5C 3171.03,684.883 3171.53,715.217 3173,745.5C 3178.36,758.163 3188.03,764.497 3202,764.5C 3216.78,764.299 3226.45,757.299 3231,743.5C 3232.46,713.875 3232.96,684.209 3232.5,654.5C 3242.5,654.5 3252.5,654.5 3262.5,654.5C 3262.67,683.169 3262.5,711.835 3262,740.5C 3259.81,767.694 3245.31,783.861 3218.5,789C 3199.24,792.468 3180.9,789.801 3163.5,781C 3151.09,772.019 3143.92,759.853 3142,744.5C 3141.5,714.502 3141.33,684.502 3141.5,654.5 Z"/></g>
<g><path style="opacity:0.981" fill="#011c30" d="M 3281.5,654.5 C 3317.17,654.5 3352.83,654.5 3388.5,654.5C 3388.5,663.167 3388.5,671.833 3388.5,680.5C 3375.5,680.5 3362.5,680.5 3349.5,680.5C 3349.5,716.167 3349.5,751.833 3349.5,787.5C 3339.83,787.5 3330.17,787.5 3320.5,787.5C 3320.5,751.833 3320.5,716.167 3320.5,680.5C 3307.5,680.5 3294.5,680.5 3281.5,680.5C 3281.5,671.833 3281.5,663.167 3281.5,654.5 Z"/></g>
<g><path style="opacity:0.979" fill="#011c30" d="M 3556.5,654.5 C 3570.18,654.167 3583.85,654.501 3597.5,655.5C 3608.1,682.127 3618.6,708.794 3629,735.5C 3639.4,708.794 3649.9,682.127 3660.5,655.5C 3674.15,654.501 3687.82,654.167 3701.5,654.5C 3701.5,698.833 3701.5,743.167 3701.5,787.5C 3691.83,787.5 3682.17,787.5 3672.5,787.5C 3672.67,756.498 3672.5,725.498 3672,694.5C 3660.06,725.497 3648.22,756.497 3636.5,787.5C 3631.5,787.5 3626.5,787.5 3621.5,787.5C 3609.78,756.497 3597.94,725.497 3586,694.5C 3585.5,725.498 3585.33,756.498 3585.5,787.5C 3575.83,787.5 3566.17,787.5 3556.5,787.5C 3556.5,743.167 3556.5,698.833 3556.5,654.5 Z"/></g>
<g><path style="opacity:0.971" fill="#011c30" d="M 3765.5,654.5 C 3778.08,654.178 3790.58,654.511 3803,655.5C 3819.74,699.206 3836.57,742.873 3853.5,786.5C 3842.52,787.666 3831.52,787.832 3820.5,787C 3817.74,780.223 3815.07,773.39 3812.5,766.5C 3793.84,765.334 3775.18,765.167 3756.5,766C 3753.14,772.915 3750.47,780.082 3748.5,787.5C 3737.16,787.667 3725.83,787.5 3714.5,787C 3731.92,742.993 3748.92,698.827 3765.5,654.5 Z M 3783.5,685.5 C 3791.13,703.051 3797.8,721.051 3803.5,739.5C 3790.48,739.832 3777.48,739.499 3764.5,738.5C 3771.13,720.909 3777.47,703.243 3783.5,685.5 Z"/></g>
<g><path style="opacity:0.965" fill="#011c30" d="M 3845.5,654.5 C 3881.17,654.5 3916.83,654.5 3952.5,654.5C 3952.5,663.167 3952.5,671.833 3952.5,680.5C 3939.83,680.5 3927.17,680.5 3914.5,680.5C 3914.5,716.167 3914.5,751.833 3914.5,787.5C 3904.5,787.5 3894.5,787.5 3884.5,787.5C 3884.5,751.833 3884.5,716.167 3884.5,680.5C 3871.5,680.5 3858.5,680.5 3845.5,680.5C 3845.5,671.833 3845.5,663.167 3845.5,654.5 Z"/></g>
<g><path style="opacity:0.95" fill="#011c30" d="M 3971.5,654.5 C 3981.5,654.5 3991.5,654.5 4001.5,654.5C 4001.5,698.833 4001.5,743.167 4001.5,787.5C 3991.5,787.5 3981.5,787.5 3971.5,787.5C 3971.5,743.167 3971.5,698.833 3971.5,654.5 Z"/></g>
<g><path style="opacity:0.978" fill="#011c30" d="M 4182.5,654.5 C 4192.85,654.168 4203.19,654.501 4213.5,655.5C 4233.53,682.36 4253.36,709.36 4273,736.5C 4273.5,709.169 4273.67,681.835 4273.5,654.5C 4283.17,654.5 4292.83,654.5 4302.5,654.5C 4302.5,698.833 4302.5,743.167 4302.5,787.5C 4292.83,787.666 4283.16,787.5 4273.5,787C 4252.61,759.113 4232.11,730.947 4212,702.5C 4211.5,730.831 4211.33,759.165 4211.5,787.5C 4201.83,787.5 4192.17,787.5 4182.5,787.5C 4182.5,743.167 4182.5,698.833 4182.5,654.5 Z"/></g>
<g><path style="opacity:0.934" fill="#011c30" d="M 4409.5,672.5 C 4416.83,672.5 4424.17,672.5 4431.5,672.5C 4431.5,685.167 4431.5,697.833 4431.5,710.5C 4442.83,710.5 4454.17,710.5 4465.5,710.5C 4465.5,717.167 4465.5,723.833 4465.5,730.5C 4454.17,730.5 4442.83,730.5 4431.5,730.5C 4431.5,743.5 4431.5,756.5 4431.5,769.5C 4424.17,769.5 4416.83,769.5 4409.5,769.5C 4409.5,756.5 4409.5,743.5 4409.5,730.5C 4398.17,730.5 4386.83,730.5 4375.5,730.5C 4375.5,723.833 4375.5,717.167 4375.5,710.5C 4386.83,710.5 4398.17,710.5 4409.5,710.5C 4409.5,697.833 4409.5,685.167 4409.5,672.5 Z"/></g>
<g><path style="opacity:0.966" fill="#011c30" d="M 3189.5,845.5 C 3218.74,843.054 3241.57,853.72 3258,877.5C 3269.45,900.027 3270.45,923.027 3261,946.5C 3250.33,967.094 3233.5,979.26 3210.5,983C 3178.31,987.624 3153.48,976.458 3136,949.5C 3123.92,923.444 3125.26,898.11 3140,873.5C 3152.63,857.268 3169.13,847.934 3189.5,845.5 Z M 3192.5,871.5 C 3224.82,872.996 3239.65,889.996 3237,922.5C 3231.58,948.24 3215.75,959.74 3189.5,957C 3172.49,952.651 3162.32,941.817 3159,924.5C 3154.67,896.726 3165.83,879.059 3192.5,871.5 Z"/></g>
<g><path style="opacity:0.963" fill="#011c30" d="M 3326.5,845.5 C 3344.01,844.568 3360.35,848.401 3375.5,857C 3378.86,859.366 3381.86,862.033 3384.5,865C 3379.53,872.455 3374.19,879.622 3368.5,886.5C 3354.88,874.794 3339.22,870.294 3321.5,873C 3313.79,875.664 3310.96,880.831 3313,888.5C 3315.41,890.956 3318.24,892.789 3321.5,894C 3332.83,896.999 3344.16,899.999 3355.5,903C 3386.3,913.434 3395.13,933.601 3382,963.5C 3374.9,973.303 3365.4,979.47 3353.5,982C 3327.19,987.339 3303.19,982.339 3281.5,967C 3279.77,965.611 3278.44,963.944 3277.5,962C 3282.27,954.07 3287.6,946.57 3293.5,939.5C 3308.54,954.567 3326.54,960.067 3347.5,956C 3353.84,954.147 3357.5,949.98 3358.5,943.5C 3357.84,940.341 3356.18,937.841 3353.5,936C 3349.73,933.781 3345.73,932.115 3341.5,931C 3326.17,928.334 3311.5,923.667 3297.5,917C 3281.97,904.729 3277.8,889.229 3285,870.5C 3294.4,854.879 3308.24,846.546 3326.5,845.5 Z"/></g>
<g><path style="opacity:0.967" fill="#011c30" d="M 3685.5,845.5 C 3715.33,843.001 3738.49,854.001 3755,878.5C 3763.05,893.901 3765.71,910.234 3763,927.5C 3757.24,955.928 3740.4,974.095 3712.5,982C 3689.16,986.999 3667.82,982.665 3648.5,969C 3624.98,946.079 3618.48,918.912 3629,887.5C 3640,862.919 3658.84,848.919 3685.5,845.5 Z M 3689.5,871.5 C 3713.25,871.085 3727.75,882.418 3733,905.5C 3736.2,924.572 3730.37,940.072 3715.5,952C 3694.81,962.193 3676.98,958.693 3662,941.5C 3651.72,922.93 3652.06,904.597 3663,886.5C 3670.1,878.192 3678.93,873.192 3689.5,871.5 Z"/></g>
<g><path style="opacity:0.966" fill="#011c30" d="M 4183.5,845.5 C 4211.08,842.67 4232.41,852.67 4247.5,875.5C 4240.32,880.594 4232.65,884.927 4224.5,888.5C 4205.92,868.159 4185.59,866.326 4163.5,883C 4150.88,898.072 4148.05,914.905 4155,933.5C 4165.56,953.7 4182.06,961.2 4204.5,956C 4209.69,954.153 4214.53,951.653 4219,948.5C 4219.5,943.177 4219.67,937.844 4219.5,932.5C 4207.83,932.5 4196.17,932.5 4184.5,932.5C 4184.5,924.167 4184.5,915.833 4184.5,907.5C 4206.17,907.5 4227.83,907.5 4249.5,907.5C 4249.67,924.837 4249.5,942.17 4249,959.5C 4223.88,983.927 4194.71,990.093 4161.5,978C 4135.04,965.425 4121.71,944.425 4121.5,915C 4121.31,884.703 4134.97,863.37 4162.5,851C 4169.51,848.666 4176.51,846.833 4183.5,845.5 Z"/></g>
<g><path style="opacity:0.962" fill="#011c30" d="M 4609.5,845.5 C 4638.27,843.049 4659.93,854.049 4674.5,878.5C 4666.77,883.03 4658.77,887.03 4650.5,890.5C 4635.36,870.372 4616.7,866.538 4594.5,879C 4579.55,891.967 4574.38,908.134 4579,927.5C 4586.61,949.564 4602.11,959.397 4625.5,957C 4635.96,953.876 4644.12,947.71 4650,938.5C 4658.39,942.276 4666.55,946.442 4674.5,951C 4664.91,968.58 4650.24,979.247 4630.5,983C 4597.72,987.517 4572.55,976.017 4555,948.5C 4546.19,928.574 4545.19,908.241 4552,887.5C 4563.46,862.863 4582.63,848.863 4609.5,845.5 Z"/></g>
<g><path style="opacity:0.959" fill="#011c30" d="M 3009.5,847.5 C 3032.5,847.333 3055.5,847.5 3078.5,848C 3107.17,853.14 3120.01,870.306 3117,899.5C 3113.28,917.553 3102.45,928.72 3084.5,933C 3069.54,934.376 3054.54,934.876 3039.5,934.5C 3039.5,950.167 3039.5,965.833 3039.5,981.5C 3029.5,981.5 3019.5,981.5 3009.5,981.5C 3009.5,936.833 3009.5,892.167 3009.5,847.5 Z M 3039.5,873.5 C 3051.89,873.082 3064.23,873.582 3076.5,875C 3087.31,880.759 3090.14,889.259 3085,900.5C 3081.6,904.949 3077.1,907.449 3071.5,908C 3060.84,908.5 3050.17,908.667 3039.5,908.5C 3039.5,896.833 3039.5,885.167 3039.5,873.5 Z"/></g>
<g><path style="opacity:0.943" fill="#011c30" d="M 3405.5,847.5 C 3415.5,847.5 3425.5,847.5 3435.5,847.5C 3435.5,892.167 3435.5,936.833 3435.5,981.5C 3425.5,981.5 3415.5,981.5 3405.5,981.5C 3405.5,936.833 3405.5,892.167 3405.5,847.5 Z"/></g>
<g><path style="opacity:0.97" fill="#011c30" d="M 3452.5,847.5 C 3488.17,847.5 3523.83,847.5 3559.5,847.5C 3559.5,856.167 3559.5,864.833 3559.5,873.5C 3546.5,873.5 3533.5,873.5 3520.5,873.5C 3520.5,909.5 3520.5,945.5 3520.5,981.5C 3510.83,981.5 3501.17,981.5 3491.5,981.5C 3491.5,945.5 3491.5,909.5 3491.5,873.5C 3478.5,873.5 3465.5,873.5 3452.5,873.5C 3452.5,864.833 3452.5,856.167 3452.5,847.5 Z"/></g>
<g><path style="opacity:0.976" fill="#011c30" d="M 3576.5,847.5 C 3586.17,847.5 3595.83,847.5 3605.5,847.5C 3605.5,892.167 3605.5,936.833 3605.5,981.5C 3595.83,981.5 3586.17,981.5 3576.5,981.5C 3576.5,936.833 3576.5,892.167 3576.5,847.5 Z"/></g>
<g><path style="opacity:0.965" fill="#011c30" d="M 3782.5,847.5 C 3792.85,847.168 3803.19,847.501 3813.5,848.5C 3833.53,875.36 3853.36,902.36 3873,929.5C 3873.5,902.169 3873.67,874.835 3873.5,847.5C 3883.17,847.5 3892.83,847.5 3902.5,847.5C 3902.5,892.167 3902.5,936.833 3902.5,981.5C 3893.16,981.666 3883.83,981.5 3874.5,981C 3854,953.167 3833.5,925.333 3813,897.5C 3812.5,925.498 3812.33,953.498 3812.5,981.5C 3802.5,981.5 3792.5,981.5 3782.5,981.5C 3782.5,936.833 3782.5,892.167 3782.5,847.5 Z"/></g>
<g><path style="opacity:0.943" fill="#011c30" d="M 3927.5,847.5 C 3937.5,847.5 3947.5,847.5 3957.5,847.5C 3957.5,892.167 3957.5,936.833 3957.5,981.5C 3947.5,981.5 3937.5,981.5 3927.5,981.5C 3927.5,936.833 3927.5,892.167 3927.5,847.5 Z"/></g>
<g><path style="opacity:0.965" fill="#011c30" d="M 3982.5,847.5 C 3992.51,847.334 4002.51,847.5 4012.5,848C 4032.46,874.744 4052.29,901.578 4072,928.5C 4072.5,901.502 4072.67,874.502 4072.5,847.5C 4082.5,847.5 4092.5,847.5 4102.5,847.5C 4102.5,892.167 4102.5,936.833 4102.5,981.5C 4092.83,981.666 4083.16,981.5 4073.5,981C 4052.88,952.922 4032.38,924.755 4012,896.5C 4011.5,924.831 4011.33,953.165 4011.5,981.5C 4001.83,981.5 3992.17,981.5 3982.5,981.5C 3982.5,936.833 3982.5,892.167 3982.5,847.5 Z"/></g>
<g><path style="opacity:0.974" fill="#011c30" d="M 4313.5,847.5 C 4349.17,847.5 4384.83,847.5 4420.5,847.5C 4420.5,856.167 4420.5,864.833 4420.5,873.5C 4407.5,873.5 4394.5,873.5 4381.5,873.5C 4381.5,909.5 4381.5,945.5 4381.5,981.5C 4371.83,981.5 4362.17,981.5 4352.5,981.5C 4352.5,945.5 4352.5,909.5 4352.5,873.5C 4339.5,873.5 4326.5,873.5 4313.5,873.5C 4313.5,864.833 4313.5,856.167 4313.5,847.5 Z"/></g>
<g><path style="opacity:0.966" fill="#011c30" d="M 4437.5,847.5 C 4469.17,847.5 4500.83,847.5 4532.5,847.5C 4532.5,856.167 4532.5,864.833 4532.5,873.5C 4510.5,873.5 4488.5,873.5 4466.5,873.5C 4466.5,882.5 4466.5,891.5 4466.5,900.5C 4488.17,900.5 4509.83,900.5 4531.5,900.5C 4531.5,909.167 4531.5,917.833 4531.5,926.5C 4509.83,926.5 4488.17,926.5 4466.5,926.5C 4466.5,936.167 4466.5,945.833 4466.5,955.5C 4488.5,955.5 4510.5,955.5 4532.5,955.5C 4532.5,964.167 4532.5,972.833 4532.5,981.5C 4500.83,981.5 4469.17,981.5 4437.5,981.5C 4437.5,936.833 4437.5,892.167 4437.5,847.5 Z"/></g>
<g><path style="opacity:0.977" fill="#011c30" d="M 4690.5,847.5 C 4700.17,847.5 4709.83,847.5 4719.5,847.5C 4719.5,864.833 4719.5,882.167 4719.5,899.5C 4740.17,899.5 4760.83,899.5 4781.5,899.5C 4781.5,882.167 4781.5,864.833 4781.5,847.5C 4791.17,847.5 4800.83,847.5 4810.5,847.5C 4810.5,892.167 4810.5,936.833 4810.5,981.5C 4800.83,981.5 4791.17,981.5 4781.5,981.5C 4781.5,962.833 4781.5,944.167 4781.5,925.5C 4760.83,925.5 4740.17,925.5 4719.5,925.5C 4719.5,944.167 4719.5,962.833 4719.5,981.5C 4709.83,981.5 4700.17,981.5 4690.5,981.5C 4690.5,936.833 4690.5,892.167 4690.5,847.5 Z"/></g>
</svg>
